<svg xmlns="http://www.w3.org/2000/svg" width="49.22" height="31.566" viewBox="0 0 49.22 31.566">
    <path data-name="Path 5138" d="M6.428 66.371a6.217 6.217 0 0 1-5.083-2.035C-.547 62.028.1 58.659.128 58.517c.053-.376 1.54-10.158 10.12-15.879 8.635-5.755 18.491-1.641 18.9-1.464l19.216 6.862a1.282 1.282 0 0 1 .851 1.205v2.517a1.275 1.275 0 0 1-.795 1.185L45.111 54.3l-7.787 3.2-9.034 3.714c-2.53 1.04-5.073 2.058-7.58 3.143a32.988 32.988 0 0 1-5.345 1.322 60.937 60.937 0 0 1-6.577.64q-1.179.051-2.358.051zm14.253-25.35a17.182 17.182 0 0 0-9.656 2.785c-8.045 5.363-9.5 14.853-9.515 14.949-.012.064-.548 2.908.924 4.7a4.9 4.9 0 0 0 3.994 1.516 57.582 57.582 0 0 0 6.657-.4 39.657 39.657 0 0 0 5.752-1.085 44.658 44.658 0 0 0 5.139-2l.058-.024 3.36-1.383 3.756-1.546 3.9-1.6 3.791-1.56 3.431-1.412 2.817-1.161 1.954-.8.85-.35-.072-2.315-19.178-6.858a22.574 22.574 0 0 0-7.958-1.459zm27.133 8.221z" transform="translate(.001 -34.804)" style="fill:#003aa6"/>
    <path data-name="Path 5139" d="m162.926 117.831-4.9 4.508c-.568.5 0 1.272.865 1.16l28.37-5.916v-1.4l-23.624 1.4a1.077 1.077 0 0 0-.711.248z" transform="translate(-138.741 -102.15)" style="fill:#003aa6"/>
    <path data-name="Path 5140" d="m23 52.769.135-.117c1.468-1.247 3.222-2.294 4.771-3.488a16.1 16.1 0 0 1 2.494-1.753c1.9-.972 4.676-.634 6.813-.24A7.9 7.9 0 0 1 39.9 48a2.106 2.106 0 0 1 .45 3.426 35.718 35.718 0 0 1-4.23 4.157 27.691 27.691 0 0 1-5.689 3.857 12.481 12.481 0 0 1-3.457 1.138 26.124 26.124 0 0 1-4.128.139A7.692 7.692 0 0 1 19.8 60.3c-2.025-.92-1.191-2.5-.237-3.642 0-.344.481-.593.717-.842.315-.332.534-.726.814-1.077A15.049 15.049 0 0 1 23 52.768z" transform="translate(-16.318 -41.129)" style="fill:#003aa6"/>
    <path data-name="Path 5141" d="M12.23 174.789c1.15 1.722 1.7 4.574.378 6.149-1.557 1.852-4.65 1.727-6.806 1.483-.255-.029-.79-.729-.978-.915a21.535 21.535 0 0 1-.979-1.026 13.566 13.566 0 0 1-1.375-1.805 5.415 5.415 0 0 1-.981-2.93c.057-1.792 1.68-2.724 3.265-3.03 2.089-.4 5.367-.2 6.922 1.383a4.714 4.714 0 0 1 .554.691z" transform="translate(-1.308 -151.7)" style="fill:#003aa6"/>
    <path data-name="Rectangle 5415" transform="rotate(-51 18.246 -22.79)" style="fill:#003aa6" d="M0 0h6.835v1.403H0z"/>
    <path data-name="Path 5142" d="M212.688 2.806a.7.7 0 0 1-.7-.7V1.4h-6.313v.7a.7.7 0 0 1-1.4 0V.7a.7.7 0 0 1 .7-.7h7.716a.7.7 0 0 1 .7.7v1.4a.7.7 0 0 1-.703.706z" transform="translate(-179.603)" style="fill:#003aa6"/>
</svg>
